<?xml version="1.0" standalone="no"?>
<!DOCTYPE svg PUBLIC "-//W3C//DTD SVG 20010904//EN"
 "http://www.w3.org/TR/2001/REC-SVG-20010904/DTD/svg10.dtd">
<svg version="1.0" xmlns="http://www.w3.org/2000/svg"
 width="200.000000pt" height="200.000000pt" viewBox="0 0 200.000000 200.000000"
 preserveAspectRatio="xMidYMid meet">
<metadata>
Created by potrace 1.11, written by Peter Selinger 2001-2013
</metadata>
<g transform="translate(0.000000,200.000000) scale(0.100000,-0.100000)"
fill="#000000" stroke="none">
<path d="M905 1703 c-303 -51 -529 -254 -600 -538 -18 -73 -24 -208 -13 -285
30 -205 169 -403 355 -508 194 -108 434 -120 638 -30 207 91 362 284 409 508
20 92 14 237 -13 336 -67 242 -265 436 -510 499 -58 15 -219 26 -266 18z m56
-273 c6 0 8 4 5 9 -4 5 2 8 11 6 10 -1 17 -8 15 -15 -1 -7 3 -18 9 -26 9 -11
8 -14 -2 -14 -11 0 -11 -2 -1 -8 9 -7 8 -13 -8 -27 -18 -17 -25 -14 -21 8 1 5
-4 7 -11 4 -7 -2 -12 -10 -10 -16 1 -7 -2 -10 -8 -6 -5 3 -10 1 -10 -6 0 -18
-11 -4 -14 17 -4 24 -24 30 -22 7 0 -10 -6 -18 -14 -18 -8 0 -20 -6 -26 -14
-6 -8 -16 -11 -22 -7 -14 9 -15 -4 -2 -24 6 -10 10 -11 10 -2 0 6 9 12 21 12
11 0 18 4 14 9 -3 6 9 9 27 9 43 -1 98 5 93 10 -2 3 6 13 18 23 12 10 17 18
12 19 -16 0 -14 67 2 67 9 0 10 -4 3 -11 -5 -5 -10 -15 -10 -20 0 -6 5 -4 10
4 9 13 11 13 21 0 8 -12 9 -9 4 10 -5 19 -4 21 4 10 6 -8 8 -22 5 -31 -3 -12
1 -16 13 -15 13 1 17 -5 15 -22 -3 -23 -3 -23 15 -5 19 18 19 18 -1 33 -12 8
-22 20 -23 27 -3 16 47 6 68 -13 8 -8 19 -11 22 -8 4 4 16 -4 28 -17 18 -21
20 -22 15 -4 -6 19 -5 19 7 3 8 -10 17 -14 21 -10 4 4 6 0 4 -8 -2 -9 4 -15
16 -15 12 0 20 -8 22 -23 2 -12 -1 -22 -6 -22 -6 0 -9 5 -7 11 1 6 -4 14 -12
17 -9 3 -11 0 -7 -7 4 -7 3 -18 -3 -25 -9 -10 -3 -13 30 -13 28 0 37 3 29 11
-5 5 -10 14 -10 20 0 5 11 -4 23 -22 13 -17 27 -29 31 -25 4 4 4 0 1 -8 -4
-11 1 -18 15 -22 12 -3 19 -10 16 -16 -3 -5 1 -17 10 -25 16 -16 9 -21 -24
-17 -10 2 -10 -2 -1 -17 11 -17 15 -18 26 -6 16 16 27 19 18 5 -3 -5 -1 -13 5
-16 6 -4 8 -16 4 -27 -3 -11 -2 -18 3 -15 5 3 9 -3 9 -13 0 -10 -4 -16 -8 -14
-4 3 -8 3 -8 0 0 -2 -3 -13 -7 -23 -6 -15 -4 -16 9 -6 8 7 18 10 21 6 11 -10
8 -43 -4 -43 -5 0 -7 -5 -4 -10 4 -6 11 -7 17 -4 7 4 8 2 4 -5 -6 -8 -12 -9
-20 -2 -7 6 -15 9 -18 6 -2 -3 -11 6 -18 20 -7 14 -17 25 -22 25 -5 0 -7 -4
-4 -9 7 -11 -18 -21 -30 -13 -5 4 -10 14 -12 22 -2 11 1 11 12 -3 12 -15 14
-16 20 -2 3 8 2 15 -2 15 -5 0 -17 7 -28 15 -16 13 -16 14 -1 9 13 -5 16 -2
11 9 -3 9 -12 13 -20 10 -15 -6 -18 -19 -6 -27 4 -2 7 -17 6 -33 -1 -15 3 -36
8 -45 5 -12 5 -18 -2 -18 -16 0 -12 -46 5 -60 10 -9 15 -9 15 -1 0 6 5 11 11
11 8 0 8 -4 -1 -14 -8 -11 -9 -20 -1 -33 6 -10 11 -16 11 -13 9 44 7 61 -10
70 -13 7 -20 6 -23 -3 -3 -6 -4 -2 -4 10 1 12 8 25 15 28 12 4 11 9 -4 28 -11
12 -12 16 -4 10 10 -7 21 -8 30 -3 20 13 32 2 24 -23 -6 -19 -5 -20 8 -9 17
14 44 7 52 -13 3 -10 -2 -12 -20 -9 -13 2 -24 1 -23 -3 3 -20 -2 -34 -11 -28
-5 3 -10 1 -10 -4 0 -6 2 -11 4 -11 2 0 12 -3 20 -6 12 -4 15 -2 10 9 -7 18
12 32 22 16 4 -8 3 -9 -5 -5 -8 5 -10 0 -7 -18 3 -17 1 -23 -8 -20 -7 3 -13
-2 -13 -11 0 -10 6 -14 16 -10 13 5 13 4 -1 -12 -8 -10 -13 -24 -11 -30 3 -7
-2 -13 -11 -13 -9 0 -16 -2 -16 -4 0 -2 -3 -12 -7 -22 -5 -12 -3 -15 6 -9 10
6 11 3 2 -14 -14 -25 -23 -28 -14 -5 5 14 3 15 -15 5 -12 -7 -22 -13 -22 -16
0 -2 -3 -12 -6 -22 -6 -17 -6 -17 8 1 10 13 17 15 22 8 9 -15 -23 -29 -57 -26
-24 2 -26 0 -17 -11 9 -11 8 -20 -7 -39 -10 -14 -26 -28 -36 -31 -9 -4 -14
-11 -11 -17 4 -7 2 -8 -4 -4 -7 4 -12 3 -12 -3 0 -14 -32 -19 -52 -7 -13 8
-21 7 -30 -3 -11 -10 -10 -12 2 -9 9 1 17 -1 18 -6 1 -6 -4 -11 -13 -12 -8 -1
-15 2 -15 7 0 5 -5 9 -11 9 -6 0 -8 -7 -5 -17 6 -16 6 -16 -12 0 -21 19 -43
24 -24 5 7 -7 12 -16 12 -22 0 -5 -7 -1 -16 10 -15 19 -16 19 -9 -1 3 -11 3
-16 -1 -12 -4 4 -13 2 -21 -4 -13 -11 -18 -1 -14 24 1 5 -4 7 -11 4 -7 -2 -12
-9 -11 -15 3 -13 -25 -24 -32 -12 -3 5 -12 7 -19 4 -8 -3 -17 0 -21 5 -3 6
-10 9 -15 6 -5 -3 -11 -1 -15 5 -3 5 -11 10 -17 10 -6 0 -5 -7 3 -17 13 -16
12 -17 -3 -4 -10 7 -16 17 -13 21 3 5 0 12 -6 15 -5 4 -8 13 -5 20 3 8 -4 17
-15 20 -17 6 -24 24 -20 49 1 5 -5 6 -14 2 -9 -3 -19 -6 -21 -6 -2 0 -4 -5 -4
-11 0 -5 4 -8 9 -4 16 9 24 -15 10 -31 -11 -13 -10 -15 2 -14 7 1 19 2 25 1
16 -1 25 -39 12 -48 -7 -4 -8 -1 -3 7 6 10 4 12 -10 6 -15 -5 -16 -4 -6 8 9
11 9 16 0 22 -7 4 -9 3 -6 -3 4 -6 -4 -10 -18 -10 -14 0 -25 4 -25 9 0 5 -4 6
-10 3 -6 -3 -7 1 -4 9 3 9 1 16 -5 16 -6 0 -11 -4 -11 -10 0 -5 -9 -1 -20 10
-11 11 -25 20 -31 20 -8 0 -8 5 1 15 10 12 9 16 -4 21 -12 5 -14 10 -6 19 7 9
7 15 1 19 -5 4 -12 -2 -15 -12 -8 -24 -32 -24 -32 0 0 10 4 19 8 19 4 1 13 2
19 3 7 0 15 10 20 21 11 29 11 32 -6 32 -11 0 -14 -7 -9 -21 4 -15 3 -17 -4
-8 -8 11 -10 11 -15 -2 -3 -8 -15 -14 -26 -13 -11 0 -17 6 -13 12 3 5 8 19 9
30 3 15 1 17 -9 7 -6 -6 -16 -12 -21 -12 -5 0 1 9 14 20 22 19 22 20 4 18 -11
-2 -23 -7 -27 -13 -5 -6 -8 -5 -9 3 -3 22 -4 27 -13 41 -6 10 -5 12 2 7 18
-11 14 5 -5 27 -10 12 -12 17 -4 12 9 -5 12 -3 9 6 -3 8 -11 13 -17 11 -17 -3
-13 15 4 22 13 4 14 10 5 26 -7 12 -16 18 -23 13 -13 -7 12 28 27 39 12 8 37
-2 30 -13 -3 -5 0 -9 5 -9 6 0 11 2 11 4 0 2 3 12 6 20 4 12 2 15 -9 10 -8 -3
-18 0 -22 6 -5 8 -15 6 -33 -6 -24 -16 -26 -16 -13 -1 7 9 10 17 6 17 -5 0 0
9 11 21 16 17 16 22 4 31 -13 8 -12 9 2 5 12 -4 16 0 15 14 -1 13 -6 18 -16
14 -9 -4 -5 5 8 19 17 18 20 26 10 26 -10 1 -9 4 4 11 10 6 14 15 10 22 -4 7
0 6 10 -2 18 -15 24 -2 6 16 -7 7 -6 12 5 16 11 4 13 1 9 -10 -5 -12 -3 -14 7
-8 8 5 11 4 7 -2 -4 -6 -1 -13 6 -16 10 -4 14 4 14 24 0 15 -3 26 -7 24 -3 -2
-12 0 -20 6 -11 6 -12 9 -2 9 7 0 10 4 7 10 -4 6 1 7 11 3 12 -4 15 -3 10 5
-4 7 -2 12 4 12 6 0 8 5 4 12 -4 7 -3 8 4 4 7 -4 12 -1 12 6 0 10 2 11 8 0 5
-7 7 -23 6 -35 -1 -12 -3 -26 -3 -30 -1 -5 -5 -5 -11 -2 -5 3 -10 1 -10 -4 0
-6 2 -11 4 -11 2 0 12 -3 22 -7 12 -4 15 -3 10 6 -4 6 -4 17 1 24 11 16 10 37
-6 67 -8 14 -10 22 -6 18 4 -4 19 4 33 17 14 13 39 29 54 36 15 6 28 15 28 20
0 5 5 9 11 9 8 0 8 -5 -1 -15 -18 -22 6 -19 28 3 16 16 20 17 28 4 8 -12 12
-12 24 4 14 16 13 17 -3 11 -11 -4 -16 -3 -12 3 3 6 17 7 31 4 16 -4 24 -2 25
7 0 11 2 11 6 2 2 -7 9 -13 14 -13z m363 -755 c-4 -8 -8 -15 -10 -15 -2 0 -4
7 -4 15 0 8 4 15 10 15 5 0 7 -7 4 -15z"/>
<path d="M975 1429 c-4 -6 -13 -8 -21 -5 -8 3 -14 1 -14 -5 0 -6 -5 -7 -11 -4
-5 4 -20 -1 -31 -12 -15 -13 -22 -14 -25 -6 -3 9 -10 9 -28 -3 -13 -9 -29 -13
-34 -9 -26 15 -111 -54 -95 -77 9 -12 10 -30 4 -53 -2 -5 -4 -17 -4 -25 -1
-15 -37 -22 -47 -8 -3 4 -5 -14 -5 -41 0 -28 4 -48 8 -45 4 3 5 -3 1 -12 -4
-10 -8 -13 -10 -7 -3 7 -10 11 -16 9 -7 -1 -9 -1 -4 1 12 8 8 20 -8 20 -27 0
-26 -27 2 -38 22 -8 30 -7 40 8 8 9 11 23 9 29 -3 7 2 15 10 18 8 3 14 15 14
26 0 13 4 19 11 14 9 -5 10 1 5 22 -7 27 -6 27 7 10 9 -12 16 -15 21 -8 3 6 2
13 -3 16 -5 3 -7 16 -4 29 4 18 3 20 -7 7 -13 -16 -12 -11 6 35 7 18 6 19 -11
5 -18 -15 -18 -14 0 13 12 20 21 25 28 18 18 -18 30 -12 16 7 -7 9 -9 14 -5
10 5 -4 16 -2 25 5 14 11 14 10 2 -5 -15 -21 -2 -24 19 -5 12 10 12 9 2 -4
-10 -14 -9 -18 5 -23 10 -4 20 -1 25 8 5 8 15 13 23 10 8 -4 15 -1 15 6 0 6
-4 8 -10 5 -5 -3 -10 -2 -10 3 0 16 31 23 46 11 8 -6 11 -16 7 -23 -3 -6 3 -3
15 7 21 20 48 15 36 -6 -4 -7 -3 -8 2 -4 7 7 14 87 7 87 -1 0 -5 -5 -8 -11z
m-34 -39 c6 0 8 4 5 8 -2 4 4 8 15 8 24 0 24 -3 0 -16 -23 -12 -54 -3 -44 13
5 8 8 7 11 -1 2 -7 8 -12 13 -12z m-88 -20 c-3 -11 -9 -22 -13 -25 -12 -7 -7
29 5 37 14 10 14 10 8 -12z m-159 -169 c3 -5 -1 -11 -9 -14 -9 -4 -12 -1 -8 9
6 16 10 17 17 5z"/>
<path d="M1100 1420 c0 -5 15 -17 33 -27 32 -17 38 -19 58 -22 6 0 9 -8 5 -16
-7 -18 5 -19 24 -2 12 10 12 9 1 -5 -14 -19 -5 -23 17 -9 10 6 10 10 -3 21 -8
7 -15 9 -15 4 0 -4 -10 2 -23 14 -13 12 -27 19 -30 15 -4 -3 -13 0 -20 9 -15
19 -47 31 -47 18z"/>
<path d="M1030 1395 c0 -8 5 -15 10 -15 6 0 10 7 10 15 0 8 -4 15 -10 15 -5 0
-10 -7 -10 -15z"/>
<path d="M1043 1370 c-18 -11 -33 -25 -33 -32 0 -6 3 -8 7 -5 3 4 12 2 20 -4
14 -12 18 1 5 17 -4 5 -5 8 -3 7 2 -2 11 3 20 10 14 10 14 10 3 -4 -10 -13
-10 -18 1 -28 8 -6 17 -8 20 -4 4 3 7 0 7 -7 0 -7 3 -11 6 -8 3 4 -2 20 -10
36 -12 23 -13 32 -3 35 6 3 8 6 2 6 -5 1 -25 -8 -42 -19z"/>
<path d="M1116 1365 c-9 -9 -16 -20 -16 -25 0 -12 41 -50 54 -50 5 0 18 -8 28
-17 11 -9 31 -17 46 -18 22 0 27 -5 27 -26 1 -31 40 -96 49 -81 4 6 13 9 21 5
8 -3 15 0 15 6 0 6 -5 11 -12 11 -6 0 -8 3 -5 7 8 8 -11 33 -25 33 -6 0 -5 -7
2 -15 10 -13 11 -18 1 -28 -10 -9 -11 -8 -6 8 6 17 5 18 -5 5 -10 -13 -11 -12
-6 3 3 10 2 16 -3 13 -5 -3 -11 1 -14 9 -4 10 -1 12 11 8 15 -6 15 -5 3 11
-12 15 -12 19 -1 26 16 10 42 2 34 -11 -3 -5 0 -9 5 -9 6 0 11 5 11 11 0 8 5
8 15 -1 20 -17 8 -32 -18 -24 -19 6 -20 5 -8 -9 7 -9 17 -14 22 -11 5 3 6 -1
3 -9 -3 -8 3 -23 13 -33 17 -17 17 -17 1 -11 -20 7 -25 -8 -7 -19 21 -13 33
14 17 38 -20 31 -13 54 10 36 15 -12 16 -11 4 4 -8 9 -11 22 -7 28 3 5 -1 10
-10 10 -8 0 -20 11 -27 25 -6 13 -15 22 -21 18 -5 -3 -3 -9 4 -14 10 -6 10 -9
2 -9 -7 0 -17 8 -22 18 -6 9 -11 12 -11 6 0 -7 -7 -14 -14 -17 -11 -4 -13 -1
-10 11 5 15 4 15 -5 2 -10 -13 -12 -13 -20 0 -7 9 -6 19 1 27 6 8 8 17 4 20
-11 11 -26 -20 -20 -39 2 -9 0 -19 -5 -23 -7 -4 -8 1 -4 12 6 15 4 16 -9 5
-13 -10 -17 -10 -20 0 -7 17 1 38 14 38 6 0 6 -6 -2 -15 -7 -9 -8 -15 -2 -15
19 0 21 30 2 40 -25 13 -30 13 -24 -4 8 -20 -12 -29 -37 -15 -17 9 -19 13 -8
19 7 5 17 6 21 4 5 -3 11 2 14 10 3 9 11 13 17 9 6 -3 7 -1 3 6 -6 9 -11 9
-22 0 -12 -10 -14 -10 -12 1 5 20 -18 23 -36 5z m19 -14 c-3 -6 -11 -11 -16
-11 -5 0 -4 6 3 14 14 16 24 13 13 -3z"/>
<path d="M750 1342 c0 -6 5 -14 11 -18 8 -5 8 -9 -1 -14 -9 -6 -9 -13 -1 -28
8 -15 8 -22 -2 -25 -7 -3 -4 -6 7 -6 11 -1 16 4 13 13 -3 7 0 19 6 25 8 8 8
11 -1 11 -6 0 -9 6 -6 13 3 8 -2 20 -11 27 -9 8 -15 8 -15 2z"/>
<path d="M790 1320 c0 -11 5 -20 12 -20 6 0 3 -7 -8 -15 -10 -8 -14 -14 -9
-15 22 0 33 16 28 43 -6 31 -23 37 -23 7z"/>
<path d="M1146 1318 c3 -4 9 -8 15 -8 5 0 9 4 9 8 0 5 -7 9 -15 9 -8 0 -12 -4
-9 -9z"/>
<path d="M670 1281 c-13 -26 -13 -31 3 -25 7 2 13 13 13 24 0 25 -3 25 -16 1z"/>
<path d="M1225 1241 c-6 -11 9 -23 19 -14 9 9 7 23 -3 23 -6 0 -12 -4 -16 -9z"/>
<path d="M1286 1242 c-3 -6 -1 -14 5 -17 14 -9 20 -2 10 14 -6 8 -11 9 -15 3z"/>
<path d="M594 1178 c-3 -4 0 -8 5 -8 6 0 11 -4 11 -10 0 -5 -6 -9 -12 -7 -8 1
-13 -11 -13 -35 0 -21 -8 -45 -20 -58 -15 -16 -15 -19 -3 -15 9 4 19 2 23 -4
8 -14 25 -14 25 0 0 5 -4 8 -9 4 -5 -3 -13 0 -17 6 -4 8 -3 9 4 5 16 -10 37
43 23 57 -7 7 -5 20 6 40 15 29 16 30 29 12 15 -20 20 -9 6 12 -8 13 -50 14
-58 1z"/>
<path d="M1388 1137 c-8 -12 -14 -32 -13 -44 1 -15 -3 -20 -14 -16 -9 2 -7 -1
4 -8 11 -6 27 -21 36 -32 18 -22 39 -16 39 11 -1 16 -1 16 -13 0 -12 -15 -14
-15 -25 2 -8 13 -8 20 0 22 12 4 20 76 8 83 -4 3 -14 -5 -22 -18z m15 -12 c-3
-9 -8 -14 -10 -11 -3 3 -2 9 2 15 9 16 15 13 8 -4z m7 -29 c0 -3 -4 -8 -10
-11 -5 -3 -10 -1 -10 4 0 6 5 11 10 11 6 0 10 -2 10 -4z"/>
<path d="M1306 1134 c-9 -24 -8 -27 14 -21 12 3 23 -1 29 -10 4 -9 11 -12 13
-7 3 5 -7 19 -22 31 -24 20 -29 21 -34 7z"/>
<path d="M625 1090 c-9 -15 3 -29 25 -27 19 1 22 17 5 29 -14 10 -23 10 -30
-2z"/>
<path d="M615 1050 c25 -41 -4 -93 -31 -55 -9 12 -14 13 -22 3 -7 -9 -6 -18 3
-31 7 -10 16 -14 19 -8 3 5 1 12 -4 14 -6 3 -5 4 2 3 7 -2 12 -10 10 -20 -2
-9 2 -16 8 -16 5 0 10 5 10 12 0 6 3 8 7 5 3 -4 13 -1 22 6 14 11 14 10 2 -5
-11 -15 -11 -18 0 -18 12 0 12 -2 1 -9 -11 -7 -11 -9 2 -14 10 -4 13 -13 9
-23 -5 -13 -3 -15 8 -9 11 7 11 5 -1 -10 -13 -16 -13 -18 0 -13 15 5 16 53 1
73 -4 5 -7 29 -6 52 1 23 -1 40 -6 38 -4 -3 -11 0 -15 6 -4 7 -3 9 4 5 6 -3
13 -2 17 4 3 5 2 10 -4 10 -5 0 -17 3 -27 7 -13 5 -15 3 -9 -7z m24 -66 c-6
-8 -17 -14 -23 -14 -6 0 -3 5 7 11 9 6 14 15 11 21 -4 7 -2 8 5 4 9 -6 9 -11
0 -22z"/>
<path d="M1380 999 c0 -5 -5 -7 -12 -3 -6 4 -8 3 -4 -4 3 -6 2 -13 -4 -17 -15
-9 -12 -25 5 -25 8 0 15 -4 15 -10 0 -5 7 -7 15 -4 8 3 13 11 12 17 -1 7 6 11
17 10 13 -1 15 2 7 10 -7 7 -14 7 -25 -2 -17 -14 -29 0 -20 23 3 9 3 16 0 16
-3 0 -6 -5 -6 -11z"/>
<path d="M565 932 c-3 -3 0 -11 5 -18 6 -6 9 -18 8 -25 -2 -7 5 -15 16 -17 11
-2 16 0 12 7 -5 7 -1 8 9 4 13 -5 14 -7 3 -14 -15 -10 -6 -12 16 -3 15 6 15 8
-1 21 -10 8 -13 12 -6 9 6 -4 15 -1 19 5 4 8 3 9 -4 5 -10 -6 -16 4 -14 25 1
7 -56 8 -63 1z m46 -17 c11 6 11 5 2 -5 -12 -14 -33 -6 -33 13 0 8 3 7 9 -2 5
-8 14 -10 22 -6z"/>
<path d="M1306 890 c-16 -40 -11 -67 10 -49 11 9 14 9 14 0 0 -7 4 -10 9 -7
12 8 7 64 -7 78 -9 9 -15 3 -26 -22z m28 -15 c-3 -7 -12 -16 -20 -19 -10 -4
-12 -2 -7 7 4 6 8 15 9 20 1 4 2 10 3 13 0 3 5 3 11 -1 5 -3 7 -12 4 -20z"/>
<path d="M1386 893 c2 -7 -7 -19 -19 -28 -12 -8 -17 -15 -12 -15 17 1 50 25
53 38 1 8 -2 11 -7 8 -5 -4 -11 -3 -14 1 -2 5 -2 2 -1 -4z"/>
<path d="M589 856 c0 -1 -2 -8 -4 -16 -2 -13 8 -16 56 -15 38 1 60 -3 63 -12
3 -7 -1 -10 -10 -6 -8 3 -21 0 -29 -7 -10 -9 -15 -9 -15 -1 0 6 5 11 12 11 6
0 9 3 5 6 -11 12 -32 -12 -33 -38 -1 -34 9 -36 24 -4 7 16 17 23 29 21 10 -2
22 -4 27 -4 5 -1 3 -8 -4 -16 -10 -12 -10 -18 0 -30 7 -9 15 -13 18 -10 3 2
-1 11 -8 20 -8 10 -9 15 -1 15 6 0 11 -5 11 -11 0 -5 4 -7 10 -4 6 4 7 -1 3
-12 -6 -16 -5 -16 10 -4 11 9 17 10 17 2 0 -6 -5 -11 -11 -11 -5 0 -7 -5 -3
-11 5 -8 9 -8 14 1 5 8 9 7 14 -5 6 -17 -7 -51 -23 -57 -5 -1 2 -16 16 -33 14
-16 22 -25 19 -18 -4 6 -2 14 4 18 5 3 10 11 10 16 0 6 -4 8 -9 4 -17 -10 -24
18 -8 30 9 7 13 15 9 19 -4 4 6 2 21 -5 20 -9 24 -15 15 -21 -11 -6 -10 -8 0
-8 7 0 11 -4 7 -9 -3 -6 3 -14 12 -20 10 -5 18 -17 18 -25 0 -19 18 -23 24 -5
2 6 -1 9 -6 6 -5 -3 -10 0 -10 7 0 9 7 12 16 8 14 -5 14 -3 2 11 -15 19 -36
23 -25 5 4 -7 3 -8 -5 -4 -6 4 -9 12 -6 17 4 5 2 9 -3 9 -6 0 -9 8 -8 18 0 9
-5 16 -11 15 -7 -2 -13 2 -13 7 0 6 -5 10 -10 10 -6 0 -24 14 -40 30 -16 17
-34 30 -40 30 -5 0 -10 5 -10 10 0 6 -10 25 -22 43 -19 30 -26 33 -70 33 -26
0 -48 0 -49 0z"/>
<path d="M1368 844 c-16 -8 -28 -18 -28 -22 0 -7 39 -8 60 -3 8 2 10 41 2 41
-4 -1 -19 -8 -34 -16z"/>
<path d="M1276 822 c-4 -11 -24 -36 -44 -54 -20 -18 -39 -38 -42 -43 -3 -5
-11 -10 -18 -12 -19 -2 -27 -12 -18 -20 4 -4 11 -1 16 7 6 9 10 10 10 3 0 -19
-19 -26 -35 -13 -11 9 -14 7 -12 -9 2 -25 2 -25 51 -2 22 11 46 16 54 14 12
-5 12 -3 1 15 -11 18 -15 19 -22 7 -4 -8 -12 -15 -18 -15 -6 0 -6 5 1 13 6 6
17 21 25 32 8 11 13 13 10 5 -3 -9 1 -24 9 -35 14 -19 15 -19 35 -1 14 13 21
15 21 6 0 -10 3 -10 15 0 8 7 12 16 9 21 -3 5 -1 9 4 9 15 0 53 41 47 51 -8
12 -25 12 -25 -2 0 -5 5 -7 12 -3 7 5 8 3 3 -6 -6 -10 -11 -9 -22 5 -7 11 -13
23 -13 28 0 5 -8 6 -17 3 -9 -4 -20 -1 -24 5 -4 8 -9 5 -13 -9z m40 -17 c-5
13 -4 17 3 10 18 -19 17 -50 -2 -49 -13 2 -16 -3 -12 -20 2 -11 2 -15 -1 -8
-4 9 -11 7 -24 -8 -15 -17 -19 -18 -24 -5 -3 8 -2 22 1 32 5 12 3 14 -8 9 -8
-4 -5 0 6 8 11 9 25 14 32 11 45 -18 47 -18 23 6 -15 13 -17 17 -6 9 18 -14
19 -14 12 5z"/>
<path d="M1270 771 c0 -5 -3 -18 -7 -28 -6 -17 -6 -17 10 -1 19 18 22 38 7 38
-5 0 -10 -4 -10 -9z"/>
<path d="M697 728 c4 -7 8 -19 8 -27 0 -8 7 -16 15 -18 13 -4 13 -3 0 6 -11 8
-11 11 -2 11 10 0 10 5 2 20 -6 11 -15 20 -21 20 -6 0 -7 -6 -2 -12z"/>
<path d="M730 721 c0 -6 6 -11 13 -11 9 0 9 -2 -1 -9 -8 -4 -13 -11 -13 -15 3
-20 0 -26 -9 -21 -5 3 -10 2 -10 -2 0 -5 9 -14 21 -21 16 -10 20 -10 18 0 -3
25 1 39 10 34 10 -6 25 24 16 32 -3 3 -5 0 -5 -6 0 -7 -5 -12 -11 -12 -5 0 -8
4 -5 9 3 5 -1 14 -9 21 -10 9 -15 9 -15 1z"/>
<path d="M1253 685 c-16 -12 -22 -12 -26 -2 -4 9 -6 9 -6 0 -1 -7 -7 -10 -15
-7 -9 3 -19 -4 -27 -18 -6 -13 -8 -20 -4 -16 5 4 14 3 21 -3 9 -7 14 -5 18 8
4 11 16 18 33 19 l28 1 -28 -11 c-15 -7 -24 -15 -21 -19 7 -6 -10 -11 -28 -8
-5 0 -8 -3 -8 -8 0 -23 19 -17 60 19 31 27 42 42 35 49 -8 8 -17 6 -32 -4z"/>
<path d="M870 674 c0 -10 3 -14 7 -11 3 4 13 -3 21 -14 14 -20 16 -20 24 -4
11 18 7 25 -14 29 -7 1 -19 5 -25 9 -9 5 -13 2 -13 -9z"/>
<path d="M1060 669 c-30 -10 -57 -19 -59 -19 -3 0 0 -5 6 -11 8 -8 8 -20 1
-41 -8 -23 -13 -27 -20 -16 -7 10 -8 8 -4 -5 3 -11 2 -16 -5 -12 -5 4 -7 15
-4 24 3 12 0 18 -10 18 -9 0 -14 -6 -11 -14 4 -9 1 -11 -6 -7 -8 5 -9 1 -5
-12 7 -18 7 -18 -8 0 -8 11 -15 25 -15 30 0 7 4 6 8 -1 5 -9 11 -6 21 9 11 18
11 20 -3 15 -10 -4 -13 -1 -9 8 3 8 10 12 16 8 5 -3 7 -2 4 4 -3 5 0 10 8 10
11 0 12 -4 4 -14 -17 -20 5 -16 24 5 15 17 14 18 -17 19 -30 0 -36 -4 -55 -43
-21 -41 -21 -71 -1 -59 5 3 12 0 15 -6 4 -5 13 -8 21 -5 7 3 16 1 19 -5 4 -5
14 0 24 12 17 21 48 19 36 -2 -4 -5 -2 -9 4 -9 5 0 13 9 16 21 5 15 13 19 28
15 11 -3 33 2 48 11 22 13 31 14 42 4 12 -10 15 -8 13 13 0 13 -5 24 -11 23
-5 -1 -9 4 -7 11 2 14 -14 16 -23 3 -3 -6 3 -14 12 -20 10 -6 13 -11 8 -11 -6
0 -16 5 -21 10 -8 8 -15 6 -25 -6 -12 -16 -12 -17 4 -11 24 9 21 0 -4 -14 -17
-8 -20 -8 -14 1 5 9 1 10 -16 5 -14 -4 -19 -3 -12 2 9 6 7 12 -8 21 -18 11
-19 10 -15 -13 5 -28 -10 -43 -26 -27 -8 8 -8 15 0 25 9 10 8 17 -1 26 -9 10
-8 11 7 5 15 -6 17 -4 11 7 -8 12 -6 12 8 0 9 -7 17 -9 17 -3 0 15 32 24 44
12 8 -8 7 -10 -4 -5 -11 4 -16 -1 -16 -15 0 -23 9 -26 24 -7 10 12 11 42 1 50
-2 3 -29 -4 -59 -14z"/>
<path d="M1075 640 c-3 -5 -1 -10 4 -10 6 0 11 5 11 10 0 6 -2 10 -4 10 -3 0
-8 -4 -11 -10z"/>
<path d="M985 630 c-3 -5 -1 -18 5 -27 10 -16 11 -16 6 -1 -3 9 0 18 7 21 8 2
8 5 0 10 -7 4 -14 3 -18 -3z"/>
<path d="M1037 613 c-10 -9 -9 -23 1 -23 5 0 9 7 9 15 0 17 -1 18 -10 8z"/>
</g>
</svg>
